%
M48
M72
T01C0.00787
T02C0.01378
T03C0.03200
T04C0.03307
T05C0.03346
T06C0.03400
T07C0.04000
T08C0.05118
%
T01
X323662Y125788
X323662Y130906
X329174Y130906
X329174Y125788
X334686Y125788
X334686Y130906
X340198Y130906
X340198Y125788
X340198Y136812
X334686Y136812
X329174Y136812
X323662Y136812
X323662Y142324
X329174Y142324
X334686Y142324
X340198Y142324
T02
X358528Y147144
X359728Y151944
X374128Y154344
X386728Y154344
X387328Y149544
X387928Y142944
X401728Y145344
X410728Y147144
X409174Y136733
X414328Y129744
X434128Y139344
X454528Y157344
X459928Y159744
X429928Y162744
X424528Y160944
X411328Y160944
X402928Y167544
X393928Y172344
X389728Y168144
X386728Y159144
X369328Y140544
X365728Y133344
X362128Y133344
X359728Y127344
X359728Y123744
X357328Y117744
X353728Y117744
X332128Y106344
X326128Y109944
X318328Y117744
X305128Y131544
X305128Y136944
X305128Y140544
X307528Y143544
X300328Y144144
X300328Y138144
X287128Y136944
X279253Y133977
X258928Y108744
X224128Y70344
X247528Y60144
X249928Y56544
X155128Y104544
X89728Y130944
X118229Y182796
X123328Y201744
X179728Y196344
X267328Y165744
X326128Y158544
X329728Y158544
X334528Y160944
X338128Y160944
X345328Y167544
X312928Y196344
X401128Y118344
X399328Y113544
X386728Y100944
X372328Y95544
X372328Y87744
X374128Y110544
X464728Y193344
X546928Y180144
X581728Y193944
X587728Y191544
X584128Y217344
X558328Y252144
X533128Y66144
T03
X549607Y184922
X599607Y184922
X31497Y154544
X31497Y142544
T04
X53269Y239686
X64594Y242478
X73324Y250212
X77461Y261119
X76055Y272698
X69429Y282297
X59100Y287718
X47437Y287718
X37108Y282297
X30482Y272698
X29076Y261119
X33213Y250212
X41943Y242478
X123643Y260685
X125049Y272265
X131675Y281864
X142004Y287285
X153667Y287285
X163996Y281864
X170622Y272265
X172028Y260685
X167891Y249779
X159161Y242044
X147835Y239253
X136510Y242044
X127780Y249779
X241242Y260685
X242648Y272265
X249274Y281864
X259602Y287285
X271266Y287285
X281594Y281864
X288220Y272265
X289626Y260685
X285490Y249779
X276759Y242044
X265434Y239253
X254109Y242044
X245378Y249779
X336006Y260685
X337411Y272265
X344037Y281864
X354366Y287285
X366030Y287285
X376358Y281864
X382984Y272265
X384390Y260685
X380254Y249779
X371523Y242044
X360198Y239253
X348872Y242044
X340142Y249779
X453958Y260804
X455364Y272383
X461990Y281982
X472319Y287403
X483982Y287403
X494311Y281982
X500937Y272383
X502343Y260804
X498206Y249897
X489476Y242163
X478150Y239371
X466825Y242163
X458094Y249897
X548722Y260410
X552858Y249504
X561589Y241769
X572914Y238978
X584239Y241769
X592970Y249504
X597106Y260410
X595700Y271989
X589074Y281588
X578746Y287009
X567082Y287009
X556754Y281588
X550128Y271989
T05
X27717Y84331
X27717Y99292
T06
X535040Y92603
X545040Y92603
X555040Y92603
X565040Y92603
X575040Y92603
X585040Y92603
X595040Y92603
X605040Y92603
X605040Y59603
X595040Y59603
X585040Y59603
X575040Y59603
X565040Y59603
X555040Y59603
X545040Y59603
X535040Y59603
T07
X600355Y124371
X600355Y134371
X600355Y144371
X600355Y154371
X600355Y164371
X247442Y38269
X237442Y38269
X227442Y38269
X217442Y38269
X207442Y38269
X197442Y38269
X187442Y38269
X113072Y134646
X113072Y164646
T08
X431182Y72324
X509922Y72324
M30
